<?xml version="1.0" encoding="utf-8"?>
<!-- Svg Vector Icons : http://www.onlinewebfonts.com/icon -->
<!DOCTYPE svg PUBLIC "-//W3C//DTD SVG 1.1//EN" "http://www.w3.org/Graphics/SVG/1.1/DTD/svg11.dtd">
<svg version="1.1" xmlns="http://www.w3.org/2000/svg" xmlns:xlink="http://www.w3.org/1999/xlink" x="0px" y="0px" viewBox="0 0 256 256" enable-background="new 0 0 256 256" xml:space="preserve">
<metadata> Svg Vector Icons : http://www.onlinewebfonts.com/icon </metadata>
<g><g><path fill="#000000" d="M95.1,164.2c-0.3-0.2-0.6-0.5-0.9-0.7c-0.2,0.2-0.3,0.5-0.4,0.7H95.1z M162.1,138l-26.4-26.4l-0.7-0.7l-2.6-2.4c-1.2-0.9-2.7-1.4-4.3-1.4c-1.6,0-3.1,0.6-4.3,1.4l-2.6,2.4l-0.7,0.7L93.9,138c-3,3-3,7.8,0,10.8c3,3,7.8,3,10.8,0l15.7-15.7v84.4c0,4.2,3.4,7.6,7.6,7.6c4.2,0,7.6-3.4,7.6-7.6v-84.4l15.7,15.7c3,3,7.8,3,10.8,0C165,145.8,165,141,162.1,138z M138,58c0,0-1.1-0.2-1.7-0.2c-3.2,0-5.7,2.5-5.7,5.7c0,3.9,3.7,5.4,3.7,5.4c0.5,0,0.9,0.1,1.4,0.2c0.2,0,0.4,0.1,0.7,0.1c0,0,0.1,0,0.2,0c9.3,0.9,16.1,4.1,22,9.8c0,0,2.9,2.1,4.7,2.1c3.2,0,5.7-2.5,5.7-5.7c0-2.1-3-5.1-3-5.1C158.6,63.6,149.3,59.3,138,58z M181.1,91.4c-0.1-0.2-0.1-0.3-0.2-0.5c-0.5-1.2-1.2-2.3-1.7-3.5c0,0-3.1-4.4-5.9-4.4c-3.2,0-5.7,2.5-5.7,5.7c0,0.9,0.5,2.5,0.5,2.5c0.8,1.4,1.7,2.8,2.5,4.3c0,0,0,0,0,0c0.3,0.6,0.6,1.1,1,1.7c0,0,2,1.9,4.3,1.7c3.2-0.2,5.7-2.5,5.7-5.7c0-0.5-0.2-1.5-0.2-1.5C181.3,91.7,181.2,91.6,181.1,91.4z M209.1,90.6c-9-34.3-40.1-59.7-77.3-59.7c-36.5,0-67.1,24.4-76.8,57.8c-25.5,3.9-45,26-45,52.6c0,26.9,19.9,48.8,45.7,52.5l0,0H90c4.2,0,7.6-3.4,7.6-7.6c0-4.2-3.4-7.6-7.6-7.6H55.7l0,0c-17.4-3.5-30.5-18.9-30.5-37.3c0-21,17-38.1,38.1-38.1c1.4,0,2.9,0.1,4.3,0.2c3.7-32.2,31-57.3,64.2-57.3c33.2,0,60.5,25,64.3,57.3c19.5,1.7,34.7,18,34.7,37.9c0,18.4-13.1,33.8-30.5,37.3l0,0h-34.2c-4.2,0-7.6,3.4-7.6,7.6c0,4.2,3.4,7.6,7.6,7.6h38.1l0,0c23.9-5.2,41.9-27,41.9-52.5C246,117.6,230.5,97.5,209.1,90.6z"/></g></g>
</svg>